<svg viewBox="0 0 342.85155851775386 342.85155851775386" height="342.85155851775386" width="342.85155851775386">
    <g><svg></svg></g>
    <g><svg viewBox="0 0 342.85155851775386 342.85155851775386" height="342.85155851775386" width="342.85155851775386">
            <g>
                <path
                    d="M0 171.426c0-94.676 76.75-171.426 171.426-171.426 94.676 0 171.426 76.75 171.426 171.426 0 94.676-76.75 171.426-171.426 171.426-94.676 0-171.426-76.75-171.426-171.426zM171.426 339.939c93.067 0 168.513-75.446 168.513-168.513 0-93.067-75.446-168.513-168.513-168.514-93.067 0-168.513 75.446-168.514 168.514 0 93.067 75.446 168.513 168.514 168.513z"
                    data-fill-palette-color="tertiary" fill="#4d7e3e" stroke="transparent"></path>
                <ellipse rx="164.56874808852186" ry="164.56874808852186" cx="171.42577925887693" cy="171.42577925887693"
                    fill="#4d7e3e" stroke="transparent" stroke-width="0" fill-opacity="1"
                    data-fill-palette-color="tertiary"></ellipse>
            </g>
            <g transform="matrix(1,0,0,1,64.84655864529837,129.14943106311023)"><svg
                    viewBox="0 0 213.1584412271571 84.5526963915334" height="84.5526963915334"
                    width="213.1584412271571">
                    <g><svg viewBox="0 0 213.1584412271571 84.5526963915334" height="84.5526963915334"
                            width="213.1584412271571">
                            <g><svg viewBox="0 0 213.1584412271571 84.5526963915334" height="84.5526963915334"
                                    width="213.1584412271571">
                                    <g transform="matrix(1,0,0,1,0,52.2569584559145)"><svg
                                            viewBox="0 0 213.1584412271571 32.2957379356189" height="32.2957379356189"
                                            width="213.1584412271571">
                                            <g id="textblocktransform"><svg
                                                    viewBox="0 0 213.1584412271571 32.2957379356189"
                                                    height="32.2957379356189" width="213.1584412271571" id="textblock">
                                                    <g><svg viewBox="0 0 213.1584412271571 32.2957379356189"
                                                            height="32.2957379356189" width="213.1584412271571">
                                                            <g transform="matrix(1,0,0,1,0,0)"><svg
                                                                    width="213.1584412271571"
                                                                    viewBox="2.75 -36.29999923706055 324.3699951171875 49.150001525878906"
                                                                    height="32.2957379356189"
                                                                    data-palette-color="#ffffff">
                                                                    <path
                                                                        d="M19.65 0.85Q14.85 0.85 11-1.55 7.15-3.95 4.95-8 2.75-12.05 2.75-16.8L2.75-16.8Q2.75-21.65 5.05-25.9 7.35-30.15 11.3-32.7 15.25-35.25 19.85-35.25L19.85-35.25Q24.05-35.25 27.73-33.35 31.4-31.45 31.6-26.55L31.6-26.55 28.6-26.55Q28.45-29.85 25.58-31.05 22.7-32.25 19.6-32.25L19.6-32.25Q15.85-32.25 12.65-30.03 9.45-27.8 7.6-24.2 5.75-20.6 5.75-16.65L5.75-16.65Q5.75-12.85 7.55-9.53 9.35-6.2 12.53-4.2 15.7-2.2 19.7-2.2L19.7-2.2Q23.35-2.2 26.48-3.85 29.6-5.5 31.4-8.3L31.4-8.3 33.85-6.6Q31.5-3.05 27.7-1.1 23.9 0.85 19.65 0.85L19.65 0.85ZM56.45 0.4Q55.5-0.35 54.92-1.25 54.35-2.15 53.85-3.6L53.85-3.6Q52.85-1.65 50.87-0.58 48.9 0.5 46.1 0.5L46.1 0.5Q42.15 0.5 39.77-1.6 37.4-3.7 37.4-7.3L37.4-7.3Q37.4-11.1 40.07-13.2 42.75-15.3 47.65-15.3L47.65-15.3 53.45-15.3 53.45-17.1Q53.45-20.1 52.15-21.55 50.85-23 48.15-23L48.15-23Q46.15-23 44.05-22.28 41.95-21.55 40.3-20.3L40.3-20.3 38.95-22.5Q40.8-24.05 43.22-24.88 45.65-25.7 48.2-25.7L48.2-25.7Q52.25-25.7 54.35-23.63 56.45-21.55 56.45-17.65L56.45-17.65 56.45-7.2Q56.45-3.35 58.4-1.25L58.4-1.25 56.45 0.4ZM46.15-2.2Q49.5-2.2 51.47-4.05 53.45-5.9 53.45-8.85L53.45-8.85 53.45-12.6 48.35-12.6Q44.1-12.6 42.25-11.38 40.4-10.15 40.4-7.35L40.4-7.35Q40.4-4.85 41.9-3.53 43.4-2.2 46.15-2.2L46.15-2.2ZM74.2 1.15Q71.7 1.15 69.15 0.08 66.59-1 64.67-2.9 62.75-4.8 62.1-7.2L62.1-7.2 64.65-8.2Q65.59-5.15 68.37-3.38 71.15-1.6 74.2-1.6L74.2-1.6Q76.5-1.6 78.4-2.58 80.3-3.55 81.4-5.33 82.5-7.1 82.5-9.35L82.5-9.35Q82.5-11.75 81.17-13.3 79.84-14.85 76.7-16.4L76.7-16.4Q72.45-18.45 70.25-19.75 68.05-21.05 66.65-22.83 65.25-24.6 65.25-27.05L65.25-27.05Q65.25-29.45 66.55-31.3 67.84-33.15 70.02-34.15 72.2-35.15 74.7-35.15L74.7-35.15Q76.8-35.15 78.62-34.38 80.45-33.6 81.47-32.23 82.5-30.85 82.4-29.15L82.4-29.15 79.59-29.3Q79.59-30.75 78.02-31.58 76.45-32.4 74.59-32.4L74.59-32.4Q72-32.4 70.12-30.9 68.25-29.4 68.25-27.2L68.25-27.2Q68.25-25.5 69.4-24.15 70.55-22.8 72.12-21.88 73.7-20.95 76.09-19.85L76.09-19.85Q76.59-19.6 77.15-19.35 77.7-19.1 78.2-18.8L78.2-18.8Q82.15-16.7 83.82-14.53 85.5-12.35 85.5-9.3L85.5-9.3Q85.5-6.25 83.92-3.88 82.34-1.5 79.75-0.18 77.15 1.15 74.2 1.15L74.2 1.15ZM92.94-11.45Q92.99-7.95 94.64-5.05 96.29-2.15 101.24-2.15L101.24-2.15Q103.39-2.15 105.22-2.7 107.04-3.25 109.19-4.5L109.19-4.5 110.49-2.4Q108.49-1.05 106.04-0.25 103.59 0.55 101.04 0.55L101.04 0.55Q95.79 0.55 92.87-2.83 89.94-6.2 89.94-11.7L89.94-11.7Q89.94-15.25 91.24-18.38 92.54-21.5 95.09-23.45 97.64-25.4 101.09-25.4L101.09-25.4Q103.99-25.4 106.37-24.03 108.74-22.65 110.12-20.28 111.49-17.9 111.49-15L111.49-15Q111.49-14.2 111.44-13.58 111.39-12.95 111.34-12.5L111.34-12.5 111.24-11.45 92.94-11.45ZM93.09-14.15L108.44-14.15Q108.49-14.5 108.49-15.15L108.49-15.15Q108.49-17.25 107.49-18.98 106.49-20.7 104.79-21.7 103.09-22.7 101.04-22.7L101.04-22.7Q97.99-22.7 95.82-20.48 93.64-18.25 93.09-14.15L93.09-14.15ZM115.89 6.7L115.89 3.9 137.89 3.9 137.89 6.7 115.89 6.7ZM161.39 0.85Q156.59 0.85 152.74-1.55 148.89-3.95 146.69-8 144.49-12.05 144.49-16.8L144.49-16.8Q144.49-21.65 146.79-25.9 149.09-30.15 153.04-32.7 156.99-35.25 161.59-35.25L161.59-35.25Q165.79-35.25 169.46-33.35 173.14-31.45 173.34-26.55L173.34-26.55 170.34-26.55Q170.19-29.85 167.31-31.05 164.44-32.25 161.34-32.25L161.34-32.25Q157.59-32.25 154.39-30.03 151.19-27.8 149.34-24.2 147.49-20.6 147.49-16.65L147.49-16.65Q147.49-12.85 149.29-9.53 151.09-6.2 154.26-4.2 157.44-2.2 161.44-2.2L161.44-2.2Q165.09-2.2 168.21-3.85 171.34-5.5 173.14-8.3L173.14-8.3 175.59-6.6Q173.24-3.05 169.44-1.1 165.64 0.85 161.39 0.85L161.39 0.85ZM181.34-36.3L184.34-36.3 184.34-21.35Q185.89-23.5 187.94-24.5 189.99-25.5 192.69-25.5L192.69-25.5Q196.74-25.5 198.76-23.38 200.79-21.25 200.79-17.35L200.79-17.35 200.79 0 197.79 0 197.79-16.8Q197.79-19.55 196.44-21.13 195.09-22.7 192.39-22.7L192.39-22.7Q189.99-22.7 188.09-21.45 186.19-20.2 184.34-17.7L184.34-17.7 184.34 0 181.34 0 181.34-36.3ZM225.18 0.4Q224.23-0.35 223.66-1.25 223.08-2.15 222.58-3.6L222.58-3.6Q221.58-1.65 219.61-0.58 217.63 0.5 214.83 0.5L214.83 0.5Q210.88 0.5 208.51-1.6 206.13-3.7 206.13-7.3L206.13-7.3Q206.13-11.1 208.81-13.2 211.48-15.3 216.38-15.3L216.38-15.3 222.18-15.3 222.18-17.1Q222.18-20.1 220.88-21.55 219.58-23 216.88-23L216.88-23Q214.88-23 212.78-22.28 210.68-21.55 209.03-20.3L209.03-20.3 207.68-22.5Q209.53-24.05 211.96-24.88 214.38-25.7 216.93-25.7L216.93-25.7Q220.98-25.7 223.08-23.63 225.18-21.55 225.18-17.65L225.18-17.65 225.18-7.2Q225.18-3.35 227.13-1.25L227.13-1.25 225.18 0.4ZM214.88-2.2Q218.23-2.2 220.21-4.05 222.18-5.9 222.18-8.85L222.18-8.85 222.18-12.6 217.08-12.6Q212.83-12.6 210.98-11.38 209.13-10.15 209.13-7.35L209.13-7.35Q209.13-4.85 210.63-3.53 212.13-2.2 214.88-2.2L214.88-2.2ZM232.83-17.65Q232.83-21.5 230.78-23.55L230.78-23.55 232.68-25.4Q234.88-23.85 235.48-20.9L235.48-20.9Q237.13-23.25 239.18-24.38 241.23-25.5 244.13-25.5L244.13-25.5Q248.03-25.5 250.21-23.4 252.38-21.3 252.33-17.35L252.33-17.35 252.18 0 249.28 0 249.33-16.8Q249.33-22.8 243.88-22.8L243.88-22.8Q241.33-22.8 239.56-21.58 237.78-20.35 235.83-17.7L235.83-17.7 235.83 0 232.83 0 232.83-17.65ZM270.53 12.85Q259.03 12.85 259.03 3.4L259.03 3.4Q259.03 2.6 259.28 0.45L259.28 0.45 259.43-0.9Q258.43-1.7 257.8-2.9 257.18-4.1 257.18-5.45L257.18-5.45Q257.18-6.85 257.93-8.35 258.68-9.85 260.48-10.65L260.48-10.65Q261.08-10.9 261.7-11 262.33-11.1 263.43-11.15L263.43-11.15Q261.53-13.45 261.53-16.6L261.53-16.6Q261.53-19.35 262.8-21.38 264.08-23.4 266.23-24.5 268.38-25.6 270.98-25.6L270.98-25.6Q272.93-25.6 274.48-24.9L274.48-24.9 282.73-24.9 282.73-22.35 278.18-22.65Q280.43-20.25 280.43-16.7L280.43-16.7Q280.43-12.6 277.8-10.28 275.18-7.95 270.98-7.95L270.98-7.95Q268.23-7.95 266.13-9L266.13-9Q265.03-9.1 264.18-9.1L264.18-9.1Q263.08-9.1 262.48-8.95L262.48-8.95Q261.63-8.7 260.85-7.8 260.08-6.9 260.08-5.5L260.08-5.5Q260.08-3.9 261.23-3.25 262.38-2.6 264.63-2.6L264.63-2.6 268.03-2.7 272.28-2.8Q277.38-2.8 280.35-0.95 283.33 0.9 283.33 4.65L283.33 4.65Q283.33 8.9 279.65 10.88 275.98 12.85 270.53 12.85L270.53 12.85ZM271.08-10.55Q274.18-10.55 275.8-12.25 277.43-13.95 277.43-16.65L277.43-16.65Q277.43-19.55 275.65-21.23 273.88-22.9 270.93-22.9L270.93-22.9Q267.93-22.9 266.23-21.2 264.53-19.5 264.53-16.65L264.53-16.65Q264.53-13.7 266.33-12.13 268.13-10.55 271.08-10.55L271.08-10.55ZM270.53 10.15Q280.33 10.15 280.33 4.75L280.33 4.75Q280.33-0.1 272.08-0.1L272.08-0.1Q269.78-0.1 267.98 0L267.98 0 265.78 0.05Q263.33 0.05 261.93-0.2L261.93-0.2 262.03 3.1Q262.13 5.85 263.03 7.38 263.93 8.9 265.7 9.53 267.48 10.15 270.53 10.15L270.53 10.15ZM289.38-11.45Q289.43-7.95 291.08-5.05 292.73-2.15 297.68-2.15L297.68-2.15Q299.83-2.15 301.65-2.7 303.48-3.25 305.63-4.5L305.63-4.5 306.93-2.4Q304.93-1.05 302.48-0.25 300.03 0.55 297.48 0.55L297.48 0.55Q292.23 0.55 289.3-2.83 286.38-6.2 286.38-11.7L286.38-11.7Q286.38-15.25 287.68-18.38 288.98-21.5 291.53-23.45 294.08-25.4 297.53-25.4L297.53-25.4Q300.43-25.4 302.8-24.03 305.18-22.65 306.55-20.28 307.93-17.9 307.93-15L307.93-15Q307.93-14.2 307.88-13.58 307.83-12.95 307.78-12.5L307.78-12.5 307.68-11.45 289.38-11.45ZM289.53-14.15L304.88-14.15Q304.93-14.5 304.93-15.15L304.93-15.15Q304.93-17.25 303.93-18.98 302.93-20.7 301.23-21.7 299.53-22.7 297.48-22.7L297.48-22.7Q294.43-22.7 292.25-20.48 290.08-18.25 289.53-14.15L289.53-14.15ZM324.12-25.5Q325.62-25.5 327.12-25.05L327.12-25.05 327.12-22.25Q325.67-22.6 324.22-22.6L324.22-22.6Q321.67-22.6 320.07-21.35L320.07-21.35Q318.47-20.1 317.22-17.8L317.22-17.8 317.22 0 314.22 0 314.22-17.5Q314.22-21.45 312.12-23.3L312.12-23.3 314.12-25.3Q315.02-24.75 315.82-23.65 316.62-22.55 316.97-21.2L316.97-21.2Q318.37-23.5 319.77-24.35L319.77-24.35Q321.52-25.5 324.12-25.5L324.12-25.5Z"
                                                                        opacity="1" transform="matrix(1,0,0,1,0,0)"
                                                                        fill="#ffffff" class="wordmark-text-0"
                                                                        data-fill-palette-color="quaternary"
                                                                        id="text-0"></path>
                                                                </svg></g>
                                                        </svg></g>
                                                </svg></g>
                                        </svg></g>
                                    <g transform="matrix(1,0,0,1,73.10510643988823,0)"><svg
                                            viewBox="0 0 66.94822834738065 44.63270982702533" height="44.63270982702533"
                                            width="66.94822834738065">
                                            <g><svg xmlns="http://www.w3.org/2000/svg"
                                                    xmlns:xlink="http://www.w3.org/1999/xlink" version="1.1" x="0" y="0"
                                                    viewBox="10 23.666000366210938 80 53.33399963378906"
                                                    enable-background="new 0 0 100 100" xml:space="preserve"
                                                    height="44.63270982702533" width="66.94822834738065"
                                                    class="icon-icon-0" data-fill-palette-color="quaternary"
                                                    id="icon-0">
                                                    <g fill="#ffffff" data-fill-palette-color="quaternary">
                                                        <path
                                                            d="M85.556 23.666H14.444c-2.443 0-4.444 2.001-4.444 4.444v44.446C10 75 12.001 77 14.444 77h71.111C87.999 77 90 75 90 72.557V28.11C90 25.667 87.999 23.666 85.556 23.666zM58.889 30.333h8.889v8.889h-8.889V30.333zM74.444 45.889v8.888h-8.889v-8.888H74.444zM45.556 30.333h8.889v8.889h-8.889V30.333zM61.111 45.889v8.888h-8.889v-8.888H61.111zM32.222 30.333h8.889v8.889h-8.889V30.333zM47.778 45.889v8.888h-8.889v-8.888H47.778zM18.889 30.333h8.889v8.889h-8.889V30.333zM25.556 45.889h8.889v8.888h-8.889V45.889zM67.777 70.334H32.222v-8.889h35.555V70.334zM81.111 39.222h-8.889v-8.889h8.889V39.222z"
                                                            fill="#ffffff" data-fill-palette-color="quaternary"></path>
                                                    </g>
                                                </svg></g>
                                        </svg></g>
                                    <g></g>
                                </svg></g>
                        </svg></g>
                </svg></g>
        </svg></g>
    <defs></defs>
</svg>